# xmcd
# 
# Track frame offsets:
#     150
#     4803
#     131857
#     241058
# 
# Disc length: 4690
# 
# Revision: 0
# Processed by: cddbd v1.5.2PL0 Copyright (c) Steve Scherf et al.
# Submitted via: BonkEnc v1.0.15
# 
DISCID=2b125004
DTITLE=Timothy Egan - The Big Burn
DYEAR=0
DGENRE=Audio Book
TTITLE0=30
TTITLE1=31
TTITLE2=32
TTITLE3=33
EXTD=
EXTT0=
EXTT1=
EXTT2=
EXTT3=
PLAYORDER=
